<?xml version="1.0" standalone="no"?>
<!DOCTYPE svg PUBLIC "-//W3C//DTD SVG 20010904//EN"
 "http://www.w3.org/TR/2001/REC-SVG-20010904/DTD/svg10.dtd">
<svg version="1.0" xmlns="http://www.w3.org/2000/svg"
 width="4912.000000pt" height="3212.000000pt" viewBox="0 0 4912.000000 3212.000000"
 preserveAspectRatio="xMidYMid meet">

<g transform="translate(0.000000,3212.000000) scale(0.100000,-0.100000)"
fill="#000000" stroke="none">
<path d="M22352 31939 c-138 -12 -271 -36 -417 -74 -215 -56 -331 -100 -530
-199 -123 -62 -476 -297 -7417 -4933 -1492 -997 -3968 -2650 -5503 -3675
-6118 -4086 -6829 -4562 -6903 -4621 -113 -89 -303 -278 -395 -392 -476 -590
-669 -1348 -532 -2090 47 -253 59 -287 416 -1180 81 -203 1290 -3244 2687
-6756 1397 -3512 2559 -6424 2581 -6473 60 -130 171 -312 271 -445 393 -522
988 -884 1630 -990 263 -43 332 -43 1730 14 246 10 374 15 515 20 77 3 190 7
250 10 61 3 175 7 255 10 80 3 195 7 255 10 61 3 175 7 255 10 177 6 359 14
505 20 61 3 184 7 275 10 91 3 201 7 245 10 44 2 161 7 260 10 99 3 212 7 250
10 39 2 160 7 270 10 110 3 220 8 245 10 25 2 144 7 265 10 121 4 231 8 245
10 14 2 133 7 265 10 132 4 247 9 255 10 8 2 123 6 255 10 132 4 247 9 255 10
8 2 123 6 255 10 132 4 247 9 255 10 8 2 123 6 255 10 132 4 247 9 255 10 8 1
121 6 250 9 129 4 251 9 270 11 19 2 132 7 250 10 118 3 235 8 260 10 25 2
137 7 250 10 113 3 230 8 260 10 30 2 143 7 250 10 107 3 224 8 260 10 36 2
148 7 250 10 102 3 219 8 260 10 41 2 154 7 250 10 96 3 213 8 260 10 47 2
159 7 250 10 91 3 208 8 260 10 52 3 167 7 255 10 88 3 205 7 260 10 55 3 172
7 260 10 88 3 203 8 255 10 52 3 167 7 255 10 88 3 203 7 255 10 52 3 165 7
250 10 85 3 202 7 260 10 58 3 170 7 250 10 80 3 197 7 260 10 111 4 226 9
510 20 74 3 187 7 250 10 63 3 178 7 255 10 77 3 194 7 260 10 66 3 183 7 260
10 131 5 203 8 510 20 66 3 183 7 260 10 77 3 192 7 255 10 63 3 175 7 248 10
72 3 192 7 265 10 72 3 184 7 247 10 63 3 180 7 260 10 80 3 192 7 250 10 58
3 173 7 255 10 83 3 200 7 260 10 61 3 173 7 250 10 77 3 194 7 260 10 66 3
183 7 260 10 131 5 203 8 510 20 66 3 183 7 260 10 77 3 192 7 255 10 63 3
176 7 250 10 74 3 194 7 265 10 72 3 182 7 245 10 63 3 180 7 260 10 80 3 192
7 250 10 58 3 173 7 255 10 83 3 200 7 260 10 104 4 204 8 525 20 74 3 185 7
245 10 61 3 178 7 260 10 83 3 197 7 255 10 58 3 173 7 255 10 83 3 197 7 255
10 58 3 170 7 250 10 80 3 197 7 260 10 63 3 174 7 245 10 326 12 407 16 515
20 63 3 180 7 260 10 80 3 195 7 255 10 104 4 208 8 525 20 74 3 185 7 245 10
61 3 178 7 260 10 83 3 197 7 255 10 58 3 173 7 255 10 83 3 197 7 255 10 58
3 170 7 250 10 80 3 197 7 260 10 63 3 175 7 248 10 72 3 192 7 265 10 72 3
184 7 247 10 63 3 180 7 260 10 80 3 192 7 250 10 58 3 173 7 255 10 83 3 206
8 275 10 307 12 373 15 505 20 77 3 192 7 255 10 63 3 175 7 248 10 72 3 192
7 265 10 72 3 184 7 247 10 63 3 180 7 260 10 80 3 192 7 250 10 58 3 173 7
255 10 83 3 200 7 260 10 61 3 173 7 250 10 77 3 194 7 260 10 66 3 183 7 260
10 131 5 203 8 510 20 66 3 183 7 260 10 77 3 192 7 255 10 63 3 176 7 250 10
74 3 194 7 265 10 72 3 182 7 245 10 63 3 180 7 260 10 80 3 192 7 250 10 58
3 175 7 260 10 85 3 198 7 250 10 52 2 167 7 255 10 88 3 203 7 255 10 52 2
172 7 265 10 94 3 211 8 260 10 50 3 164 7 255 10 91 3 203 8 250 10 47 2 164
7 260 10 96 3 209 8 250 10 41 2 158 7 260 10 241 8 408 22 550 46 814 138
1504 656 1871 1404 114 234 183 446 230 712 16 88 22 175 26 343 4 201 -3 345
-66 1325 -39 605 -73 1132 -76 1170 -3 39 -39 601 -80 1250 -41 649 -77 1212
-80 1250 -3 39 -26 390 -50 780 -25 391 -59 919 -75 1175 -16 256 -32 499 -35
540 -3 41 -37 570 -75 1175 -76 1185 -152 2378 -200 3130 -17 259 -42 646 -55
860 -48 757 -65 1011 -70 1085 -3 41 -73 1133 -155 2425 -82 1293 -152 2382
-155 2420 -3 39 -21 320 -40 625 -19 305 -37 589 -40 630 -3 41 -19 282 -35
535 -16 253 -34 496 -40 540 -60 431 -229 845 -493 1201 -100 134 -366 403
-498 501 -276 207 -586 358 -899 438 -52 14 -234 54 -405 90 -170 36 -521 110
-780 165 -617 130 -1674 354 -1845 390 -74 16 -394 83 -710 150 -316 67 -636
134 -710 150 -120 25 -1015 214 -1445 305 -88 19 -470 100 -850 180 -379 80
-987 208 -1350 285 -363 77 -725 153 -805 170 -150 32 -952 201 -1940 410
-311 65 -630 133 -710 150 -80 17 -399 84 -710 150 -311 66 -630 133 -710 150
-149 32 -948 200 -1940 410 -311 65 -630 133 -710 150 -80 17 -399 84 -710
150 -311 66 -630 133 -710 150 -149 32 -948 200 -1940 410 -311 65 -630 133
-710 150 -80 17 -399 84 -710 150 -311 66 -630 133 -710 150 -1510 321 -1643
348 -1795 364 -140 15 -361 17 -493 5z"/>
</g>
</svg>
